<?xml version="1.0" encoding="UTF-8"?>
<svg version="1.1" xmlns="http://www.w3.org/2000/svg" width="1024" height="1024">
<path d="M0 0 C337.92 0 675.84 0 1024 0 C1024 337.92 1024 675.84 1024 1024 C686.08 1024 348.16 1024 0 1024 C0 686.08 0 348.16 0 0 Z " fill="#FCFBF9" transform="translate(0,0)"/>
<path d="M0 0 C17.82 0 35.64 0 54 0 C54.04898438 8.47429687 54.09796875 16.94859375 54.1484375 25.6796875 C54.18833868 31.74157112 54.22945779 37.80343691 54.27233124 43.86529922 C54.32766144 51.71128288 54.38014948 59.55725124 54.421875 67.40332031 C54.4549287 73.6170059 54.49483261 79.83060431 54.54279006 86.04419339 C54.5679229 89.3309243 54.58872008 92.61758776 54.60334396 95.90438461 C54.62029497 99.58335506 54.64935181 103.26204995 54.68115234 106.94091797 C54.68331253 108.01770309 54.68547272 109.09448822 54.68769836 110.2039032 C54.80818735 121.1592709 56.25975479 131.86556502 63.125 140.75 C73.50129856 148.87058149 84.24170784 150.04655638 97 149 C106.09905238 147.33088662 113.97229738 144.23233514 119.7109375 136.77734375 C125.94483657 127.18322103 127.44756735 117.18280747 127.43237305 105.91918945 C127.4425647 104.76666183 127.45275635 103.61413422 127.46325684 102.42668152 C127.49320731 98.65549749 127.50262548 94.88456822 127.51171875 91.11328125 C127.5285787 88.48340523 127.5467307 85.8535372 127.56611633 83.22367859 C127.60958594 77.03336039 127.63825226 70.84306812 127.66143972 64.65264434 C127.6912671 56.90441319 127.74114051 49.15632671 127.79101562 41.40820312 C127.87977681 27.60551306 127.93850299 13.8028982 128 0 C146.15 0 164.3 0 183 0 C183 63.03 183 126.06 183 191 C164.85 191 146.7 191 128 191 C127.67 185.39 127.34 179.78 127 174 C126.113125 174.99 125.22625 175.98 124.3125 177 C108.12346167 193.02682351 86.02479319 196.42201224 64.21850586 196.36572266 C46.10694664 196.09630472 29.85224894 191.2059853 16.765625 178.1171875 C2.51242274 162.77587971 -0.34594067 141.23072672 -0.22705078 121.1315918 C-0.22734283 119.81296143 -0.22763489 118.49433105 -0.22793579 117.13574219 C-0.2285032 113.56425539 -0.21684962 109.99290644 -0.20278788 106.42145133 C-0.19017697 102.67256121 -0.18910194 98.92366697 -0.18673706 95.17475891 C-0.18055244 88.09550993 -0.16418304 81.01632366 -0.14403808 73.93710214 C-0.12158443 65.8692484 -0.11066199 57.80139146 -0.10064721 49.73351419 C-0.07981367 33.15563376 -0.04317578 16.57783958 0 0 Z " fill="#020302" transform="translate(292,398)"/>
<path d="M0 0 C7.81452997 -0.25572238 15.62806773 -0.45073343 23.44573975 -0.56993389 C27.07682807 -0.62717234 30.70504023 -0.70467407 34.33447266 -0.82983398 C37.84255794 -0.95004154 41.34789299 -1.01525501 44.85787964 -1.04364967 C46.83724918 -1.07364664 48.8155216 -1.15942414 50.79321289 -1.2462616 C59.63228704 -1.2522779 59.63228704 -1.2522779 63.51516724 2.30288696 C65.58905676 5.11226388 67.3265847 7.93796238 69 11 C69.73152388 12.13760378 70.46914445 13.27136464 71.21826172 14.39746094 C72.06541748 15.8017334 72.06541748 15.8017334 72.9296875 17.234375 C73.57534668 18.29672363 74.22100586 19.35907227 74.88623047 20.45361328 C75.87067139 22.08532471 75.87067139 22.08532471 76.875 23.75 C81.451567 31.26594225 86.03354737 38.77567858 90.875 46.125 C91.47223877 47.04684082 91.47223877 47.04684082 92.08154297 47.98730469 C92.99963303 49.36301101 93.99179522 50.68890109 95 52 C95.66 52 96.32 52 97 52 C98.22558253 50.50373991 98.22558253 50.50373991 99.3984375 48.51171875 C99.87176514 47.75205811 100.34509277 46.99239746 100.83276367 46.2097168 C101.34170166 45.37738525 101.85063965 44.54505371 102.375 43.6875 C103.46206568 41.93739197 104.5493103 40.18739508 105.63671875 38.4375 C106.47275635 37.08398438 106.47275635 37.08398438 107.32568359 35.703125 C109.92003801 31.51463097 112.55378661 27.3513123 115.1875 23.1875 C115.63722168 22.47360107 116.08694336 21.75970215 116.55029297 21.02416992 C117.48599113 19.54044861 118.45133473 18.07512499 119.44116211 16.62695312 C121.15742175 13.92088008 121.15742175 13.92088008 122.32641602 10.34179688 C124.08358683 5.99723234 125.91830712 2.51298503 130 0 C138.9011927 -2.26195307 148.407741 -1.3831498 157.50457764 -0.96130371 C160.94260902 -0.81712195 164.38207194 -0.75395017 167.82226562 -0.68359375 C174.55192129 -0.52970122 181.27516975 -0.29585707 188 0 C186.79947677 3.07759277 185.65139606 5.75806881 183.70703125 8.43359375 C183.02060547 9.38975586 183.02060547 9.38975586 182.3203125 10.36523438 C181.82273437 11.04908203 181.32515625 11.73292969 180.8125 12.4375 C175.9431195 19.22711532 171.18776852 26.08376805 166.5 33 C161.96964223 39.6802897 157.38235397 46.30939084 152.6875 52.875 C148.41762909 58.858619 144.4216213 64.96140804 140.60107422 71.24121094 C138.6219973 74.47793584 136.59150289 77.62188916 134.34375 80.6796875 C133.91860107 81.26202148 133.49345215 81.84435547 133.05541992 82.44433594 C131.89151427 84.01815768 130.70625389 85.57612351 129.51953125 87.1328125 C127.61272801 90.73073944 128.03537422 92.10586026 129 96 C130.21781115 98.47438413 130.21781115 98.47438413 131.8515625 100.80859375 C132.74415771 102.15570435 132.74415771 102.15570435 133.65478516 103.5300293 C134.6300415 104.96922729 134.6300415 104.96922729 135.625 106.4375 C137.02110727 108.53627614 138.41693383 110.63523902 139.8125 112.734375 C140.52148438 113.79333984 141.23046875 114.85230469 141.9609375 115.94335938 C144.88882505 120.3323862 147.75529273 124.76032167 150.625 129.1875 C155.16925276 136.17890422 159.75260275 143.14349182 164.35925293 150.09388733 C167.00981739 154.09301311 169.65732789 158.09415813 172.30511475 162.09512329 C173.63909297 164.10858311 174.9747358 166.12094111 176.31207275 168.13217163 C178.208187 170.98389371 180.09871584 173.83924843 181.98828125 176.6953125 C182.56470871 177.55897934 183.14113617 178.42264618 183.73503113 179.31248474 C184.26760025 180.11960403 184.80016937 180.92672333 185.34887695 181.75830078 C186.04712334 182.81007004 186.04712334 182.81007004 186.75947571 183.88308716 C188.10706426 186.18270155 189.06894716 188.50594243 190 191 C182.57077578 191.53756766 175.14358947 191.94371889 167.69924831 192.19167995 C164.23880506 192.31088484 160.79179865 192.47150961 157.33911133 192.73510742 C135.16421756 194.38407258 135.16421756 194.38407258 128.29431152 188.8012085 C123.59092641 183.36218315 120.33639804 177.29813609 117.3296814 170.79928589 C115.48198864 166.90946666 113.21975208 163.35319064 110.875 159.75 C110.1019119 158.50660742 109.33079793 157.26198314 108.5625 156.015625 C103.62677074 148.1807538 98.28010438 140.60494506 93 133 C92.72140137 133.4633374 92.44280273 133.9266748 92.15576172 134.40405273 C84.54370283 147.00442023 76.54840368 159.32178412 68.375 171.5625 C67.88465271 172.29749725 67.39430542 173.03249451 66.88909912 173.7897644 C65.47743029 175.90408064 64.06356291 178.01690227 62.6484375 180.12890625 C62.22389282 180.7635379 61.79934814 181.39816956 61.36193848 182.05203247 C60.24975594 183.70707403 59.12543713 185.35394295 58 187 C57.57552078 187.71560593 57.15104156 188.43121185 56.71369934 189.16850281 C55 191 55 191 52.47529602 191.48101807 C51.46935898 191.47213562 50.46342194 191.46325317 49.42700195 191.45410156 C48.28604568 191.45379944 47.14508942 191.45349731 45.96955872 191.45318604 C44.73823715 191.43254089 43.50691559 191.41189575 42.23828125 191.390625 C40.34688667 191.38213531 40.34688667 191.38213531 38.4172821 191.37347412 C35.06804732 191.35486056 31.71990283 191.31893566 28.37097168 191.2746582 C24.95248837 191.23370857 21.53389236 191.21546388 18.11523438 191.1953125 C11.40985451 191.15116211 4.70499021 191.08418642 -2 191 C0.61682669 186.31454586 3.38617618 181.80649408 6.421875 177.37890625 C6.83899246 176.76572037 7.25610992 176.15253448 7.68586731 175.52076721 C9.03836254 173.53315899 10.3942125 171.54786356 11.75 169.5625 C13.6512439 166.77055326 15.55046354 163.97723345 17.44921875 161.18359375 C17.9226622 160.48737915 18.39610565 159.79116455 18.88389587 159.07385254 C23.15472558 152.78691403 27.36415289 146.46058388 31.5625 140.125 C36.59961713 132.53053843 41.74590067 125.03250309 47.04150391 117.61621094 C50.36939928 112.94210954 53.5161723 108.18553271 56.5234375 103.296875 C57.92301189 101.11975929 59.44833663 99.14486219 61.0625 97.125 C62.0215625 95.578125 62.0215625 95.578125 63 94 C61.78072841 88.90122792 58.14857825 84.60936347 55.1875 80.375 C54.00243733 78.66287588 52.81754619 76.95063303 51.6328125 75.23828125 C50.72450684 73.93044678 50.72450684 73.93044678 49.79785156 72.59619141 C47.56620008 69.37357029 45.3583079 66.13516504 43.15185547 62.89526367 C34.64124641 50.40388586 25.95865016 38.03350399 17.25 25.6796875 C16.6324585 24.80175537 16.01491699 23.92382324 15.37866211 23.01928711 C14.21492599 21.36496402 13.04924929 19.71200332 11.88110352 18.06079102 C8.91274015 13.83827743 6.05922527 9.56382049 3.29663086 5.20336914 C2.67630478 4.22525772 2.0559787 3.2471463 1.41685486 2.23939514 C0.7155117 1.13089455 0.7155117 1.13089455 0 0 Z " fill="#020302" transform="translate(493,398)"/>
<path d="M0 0 C7.84638156 -0.25398039 15.691701 -0.4288431 23.54125977 -0.54931641 C26.21151456 -0.59390849 28.87639452 -0.66767721 31.54614258 -0.75439453 C35.3869184 -0.87600598 39.22405377 -0.93247165 43.06640625 -0.9765625 C44.25520889 -1.02817535 45.44401154 -1.07978821 46.6688385 -1.13296509 C54.79420468 -1.13844161 54.79420468 -1.13844161 58.25665283 2.13059998 C60.06624391 4.68261271 61.55691216 7.22710613 63 10 C63.94199463 11.54299808 64.8911638 13.08167056 65.8515625 14.61328125 C66.77953306 16.17762166 67.70391827 17.74409358 68.625 19.3125 C73.62070185 27.74577432 78.74901373 36.08710311 83.98681641 44.37231445 C84.51194824 45.21109131 85.03708008 46.04986816 85.578125 46.9140625 C86.04637695 47.6560791 86.51462891 48.3980957 86.99707031 49.16259766 C88 51 88 51 88 53 C88.66 53 89.32 53 90 53 C90.27602051 52.27055176 90.55204102 51.54110352 90.83642578 50.78955078 C91.93300989 48.16060197 93.16952425 45.81664798 94.6171875 43.3671875 C95.13611572 42.48748291 95.65504395 41.60777832 96.18969727 40.70141602 C96.74584717 39.76869873 97.30199707 38.83598145 97.875 37.875 C98.44855225 36.90812256 99.02210449 35.94124512 99.61303711 34.94506836 C103.96929335 27.63847385 108.45184246 20.41808536 113.04052734 13.25537109 C113.50281738 12.5330127 113.96510742 11.8106543 114.44140625 11.06640625 C114.84045166 10.44709229 115.23949707 9.82777832 115.65063477 9.18969727 C117.51011436 6.17220631 119.24147502 3.07741871 121 0 C140.14 0 159.28 0 179 0 C177.60732289 3.48169278 176.61111336 5.82939541 174.59936523 8.79736328 C174.12596207 9.50118134 173.6525589 10.20499939 173.16481018 10.93014526 C172.65538376 11.67765045 172.14595734 12.42515564 171.62109375 13.1953125 C170.52972477 14.81408689 169.43841786 16.43290313 168.34716797 18.05175781 C167.78970886 18.87518677 167.23224976 19.69861572 166.65789795 20.54699707 C164.10080217 24.3304407 161.56848147 28.13030558 159.03515625 31.9296875 C158.04695174 33.40955645 157.05867007 34.88937389 156.0703125 36.36914062 C143.922652 54.53198753 143.922652 54.53198753 131.99804688 72.84155273 C129.85790582 76.17531962 127.6932291 79.46765475 125.37890625 82.68359375 C124.61449219 83.75738281 123.85007812 84.83117187 123.0625 85.9375 C122.41410156 86.81277344 121.76570312 87.68804687 121.09765625 88.58984375 C119.71326021 90.92771388 119.71326021 90.92771388 120.66552734 93.2121582 C122.30246632 96.63188124 124.22700538 99.81861795 126.25390625 103.015625 C126.90740807 104.05302826 126.90740807 104.05302826 127.57411194 105.11138916 C133.50155644 114.45238618 139.73073395 123.5935629 145.9375 132.75 C147.2222468 134.64998314 148.50674957 136.55013132 149.79101562 138.45043945 C155.49680507 146.88979744 161.21487227 155.32080043 166.94140625 163.74609375 C167.38306625 164.39609344 167.82472626 165.04609314 168.2797699 165.71578979 C170.27634144 168.65373897 172.27459488 171.59050542 174.27709961 174.52441406 C174.96940674 175.54116211 175.66171387 176.55791016 176.375 177.60546875 C176.96023438 178.46293701 177.54546875 179.32040527 178.1484375 180.20385742 C180.50285276 183.75938458 182.75491754 187.37474913 185 191 C177.29864866 191.23231591 169.59766275 191.40968539 161.89359951 191.51812172 C158.31541634 191.57018722 154.7396396 191.64070884 151.1628418 191.75439453 C147.70667743 191.86355076 144.25281673 191.92293618 140.79506111 191.94877243 C138.84294101 191.97608199 136.89174149 192.05407906 134.94102478 192.13296509 C126.2388534 192.13843918 126.2388534 192.13843918 122.70254517 188.88876343 C120.88754629 186.33134199 119.42752399 183.7891625 118 181 C116.93808807 179.27183525 115.8664829 177.54955353 114.78125 175.8359375 C113.68453041 174.0174126 112.59088519 172.19703078 111.5 170.375 C104.1326836 158.16587114 96.58559968 146.07441437 89 134 C85.94752056 136.84236454 83.81881069 139.6672185 81.71484375 143.26171875 C81.10705078 144.29022949 80.49925781 145.31874023 79.87304688 146.37841797 C79.23431641 147.47041504 78.59558594 148.56241211 77.9375 149.6875 C72.30661018 159.19954493 66.64701345 168.68897844 60.38259888 177.80245972 C58.91575399 180.03928723 58.91575399 180.03928723 57.68858337 182.75071716 C53.72504308 190.41762284 53.72504308 190.41762284 49.13284302 191.96795654 C45.58388904 192.27444697 42.18738375 192.23813053 38.62890625 192.07421875 C37.35144028 192.05865433 36.0739743 192.0430899 34.75779724 192.02705383 C31.37922725 191.97603349 28.00900827 191.87751708 24.63275146 191.75531006 C21.18102802 191.64225057 17.72843655 191.5924343 14.27539062 191.53710938 C7.51463885 191.41603064 0.75780089 191.23213984 -6 191 C-4.76800384 187.71250188 -3.39723227 184.84226049 -1.45996094 181.91699219 C-0.94972885 181.14178223 -0.43949677 180.36657227 0.0861969 179.56787109 C0.64040817 178.73594238 1.19461945 177.90401367 1.765625 177.046875 C2.34718857 176.16628418 2.92875214 175.28569336 3.52793884 174.37841797 C5.43096937 171.49939157 7.34043984 168.62469874 9.25 165.75 C10.56717786 163.75968142 11.88398826 161.76911961 13.20043945 159.77832031 C19.26792455 150.60927968 25.35731598 141.45491147 31.46484375 132.3125 C31.95842377 131.57340393 32.45200378 130.83430786 32.96054077 130.07281494 C35.22564592 126.68207215 37.49369979 123.29338954 39.76855469 119.90917969 C41.77981097 116.91369999 43.77084739 113.90557724 45.75091553 110.8894043 C46.6350161 109.55208608 47.52714754 108.220061 48.42486572 106.8918457 C49.88012073 104.73583212 51.31080782 102.56510289 52.73828125 100.390625 C53.19422165 99.72625427 53.65016205 99.06188354 54.11991882 98.37738037 C56.57890472 94.64865427 56.57890472 94.64865427 56.45947266 90.34350586 C55.97784668 89.57014893 55.4962207 88.79679199 55 88 C54.52828369 87.21020752 54.05656738 86.42041504 53.57055664 85.60668945 C53.02262451 84.78386475 52.47469238 83.96104004 51.91015625 83.11328125 C50.98988647 81.72036865 50.98988647 81.72036865 50.05102539 80.29931641 C49.39481201 79.31366699 48.73859863 78.32801758 48.0625 77.3125 C43.44877794 70.31497591 38.88847395 63.30436468 34.5625 56.125 C30.19150777 48.88794593 25.68564267 41.74403885 21.125 34.625 C20.44961182 33.57062744 19.77422363 32.51625488 19.07836914 31.42993164 C15.77150314 26.27980357 12.44551393 21.1432557 9.0859375 16.02734375 C8.47991699 15.1029248 7.87389648 14.17850586 7.24951172 13.22607422 C6.1069781 11.48660425 4.96034279 9.74981957 3.80908203 8.01611328 C3.05280518 6.8653833 3.05280518 6.8653833 2.28125 5.69140625 C1.83845703 5.02310791 1.39566406 4.35480957 0.93945312 3.66625977 C0 2 0 2 0 0 Z " fill="#020302" transform="translate(699,398)"/>
<path d="M0 0 C0 16.17 0 32.34 0 49 C-10.395 49.495 -10.395 49.495 -21 50 C-33.34660915 52.87377972 -42.4837435 57.60642655 -50 68 C-55.1263003 76.37829705 -56.29803031 84.22260477 -56.31884766 93.89233398 C-56.33391609 95.50320641 -56.33391609 95.50320641 -56.34928894 97.1466217 C-56.38006454 100.67977384 -56.39714066 104.21285039 -56.4140625 107.74609375 C-56.43277864 110.20232287 -56.45235239 112.6585456 -56.4727478 115.11476135 C-56.52402768 121.56729354 -56.56367574 128.01984656 -56.60089111 134.47247314 C-56.64800573 142.22109874 -56.7095859 149.96962128 -56.76873779 157.71816254 C-56.8568995 169.47873333 -56.92670048 181.23928488 -57 193 C-74.82 193 -92.64 193 -111 193 C-111 129.97 -111 66.94 -111 2 C-92.85 2 -74.7 2 -56 2 C-55.505 11.405 -55.505 11.405 -55 21 C-54.030625 19.80375 -53.06125 18.6075 -52.0625 17.375 C-38.33095359 1.80342638 -19.71691863 0 0 0 Z " fill="#020302" transform="translate(274,396)"/>
</svg>
