<?xml version="1.0" encoding="UTF-8"?>
<svg version="1.1" xmlns="http://www.w3.org/2000/svg" width="1536" height="1024">
<path d="M0 0 C506.88 0 1013.76 0 1536 0 C1536 337.92 1536 675.84 1536 1024 C1029.12 1024 522.24 1024 0 1024 C0 686.08 0 348.16 0 0 Z " fill="#020202" transform="translate(0,0)"/>
<path d="M0 0 C15.33511382 -0.09394812 30.6702143 -0.16422413 46.00555229 -0.20724869 C53.12798631 -0.22776759 60.25024026 -0.25568041 67.37255859 -0.30175781 C73.58919128 -0.34195634 79.8056934 -0.36751007 86.02245247 -0.37635398 C89.30626907 -0.38151377 92.58963108 -0.39559634 95.87334824 -0.42292023 C124.96054595 -0.65511514 150.53551242 3.71987381 172.3125 24.6875 C184.44072228 36.90439328 192.13639547 54.26439799 192.3293457 71.49633789 C192.32100708 72.79752563 192.32100708 72.79752563 192.3125 74.125 C192.30512817 75.49869751 192.30512817 75.49869751 192.29760742 76.90014648 C191.94827572 97.38173269 184.91505644 114.95576489 170.6875 129.8125 C163.43254372 136.7857104 153.53425413 145 143 145 C143 145.66 143 146.32 143 147 C143.66 147 144.32 147 145 147 C146.39770508 148.58203125 146.39770508 148.58203125 148.01953125 150.8125 C148.6230542 151.63266602 149.22657715 152.45283203 149.84838867 153.29785156 C150.49654541 154.18956055 151.14470215 155.08126953 151.8125 156 C156.63319035 162.53876701 161.51408906 168.98603372 166.6875 175.25 C171.55955125 181.1597349 176.20244573 187.20341047 180.76464844 193.35473633 C183.57004682 197.12640762 186.43577761 200.81793675 189.4375 204.4375 C193.37871345 209.19013975 197.17494361 214.0431303 200.9375 218.9375 C201.505896 219.67218506 202.07429199 220.40687012 202.65991211 221.16381836 C203.19366455 221.86128174 203.72741699 222.55874512 204.27734375 223.27734375 C204.75421631 223.89859131 205.23108887 224.51983887 205.72241211 225.15991211 C207.02547775 227.03669516 208.0300376 228.93422835 209 231 C205.68727224 230.85908107 202.37488029 230.71134606 199.0625 230.5625 C198.13630859 230.52318359 197.21011719 230.48386719 196.25585938 230.44335938 C194.40005547 230.35870867 192.54475527 230.26218303 190.69018555 230.15380859 C188.95869039 230.05481214 187.2253436 229.98265976 185.49145508 229.94384766 C181.17871529 229.72364942 179.46539211 229.39412701 176.06640625 226.515625 C175.20608582 225.44726739 174.37220755 224.35720952 173.5625 223.25 C173.10496338 222.66871338 172.64742676 222.08742676 172.17602539 221.48852539 C170.75873464 219.67695992 169.37821278 217.84139882 168 216 C167.14523451 214.88777889 166.28852304 213.77705006 165.4296875 212.66796875 C164.18067185 211.051968 162.9348768 209.43404654 161.69946289 207.80761719 C158.89577637 204.11963564 155.98537337 200.54425762 153 197 C149.19141901 192.4747187 145.55020632 187.85315021 141.9675293 183.14770508 C136.92753162 176.55467916 131.68690678 170.12796416 126.40673828 163.7265625 C125.22415677 162.27511918 124.07479022 160.7967026 122.93359375 159.3125 C117.27554335 152.17101643 110.76974514 151.066047 102 150 C98.85868066 149.86238712 95.72209435 149.85965457 92.578125 149.8671875 C91.6786615 149.86623077 90.779198 149.86527405 89.85247803 149.86428833 C87.94966563 149.86361003 86.04685088 149.86543983 84.14404297 149.86962891 C81.30039944 149.87490646 78.45691941 149.86971146 75.61328125 149.86328125 C63.71115287 149.85939725 51.87786465 150.24538602 40 151 C38.38126271 144.88594166 37.93813678 138.03316971 40.125 132 C42.41946117 128.32886213 44.00825064 127.59126384 48 126 C51.53034973 125.62818909 51.53034973 125.62818909 55.47973633 125.63110352 C56.20433044 125.62733704 56.92892456 125.62357056 57.67547607 125.61968994 C59.24192325 125.61327979 60.80840936 125.61356648 62.37485695 125.61987495 C64.8712326 125.62905033 67.36686713 125.61868361 69.86320496 125.60325623 C76.95851539 125.56336786 84.05376591 125.56193054 91.14916992 125.56420898 C95.50051542 125.56426072 99.85146667 125.54477098 104.20270348 125.51487541 C106.63141459 125.50423746 109.05930865 125.51607416 111.48799133 125.52870178 C124.96154698 125.49774527 138.8737355 124.23343573 150 116 C150.99 115.67 151.98 115.34 153 115 C154.05853158 113.1492493 154.05853158 113.1492493 155 111 C155.94843068 109.68032645 156.90755587 108.36829894 157.875 107.0625 C166.28123886 94.66894979 167.67121915 78.01038499 165.46875 63.5 C164.78704632 60.59534952 163.98050278 57.81679527 163 55 C162.76796875 54.31035156 162.5359375 53.62070312 162.296875 52.91015625 C157.72200751 41.94392978 147.60975776 33.58184326 137 29 C136.16248703 28.63693756 135.32497406 28.27387512 134.46208191 27.89981079 C123.16077478 23.76356461 111.55133841 24.43358067 99.67578125 24.4609375 C97.31934198 24.45101511 94.96291045 24.43906805 92.60649109 24.42520142 C86.43399733 24.39298862 80.26168086 24.3824605 74.08911133 24.37835693 C64.20133501 24.36956794 54.31370317 24.33392995 44.42604637 24.2861824 C40.98842735 24.2736656 37.55099457 24.27434891 34.11335754 24.27645874 C31.99264384 24.26987455 29.87193138 24.26286753 27.7512207 24.25537109 C26.80706802 24.25949509 25.86291534 24.26361908 24.89015198 24.26786804 C9.42343131 24.17487425 9.42343131 24.17487425 4.5625 19.8125 C1.56862175 14.42351914 -0.1797152 10.95364157 -0.078125 4.76171875 C-0.0668457 3.86799561 -0.05556641 2.97427246 -0.04394531 2.0534668 C-0.02944336 1.37582275 -0.01494141 0.69817871 0 0 Z " fill="#CB9B34" transform="translate(321,390)"/>
<path d="M0 0 C57.6779661 0 57.6779661 0 70.37890625 11.07421875 C81.10352425 22.39135709 82.39339836 36.28533585 82.3125 51.3125 C82.30512817 52.94554077 82.30512817 52.94554077 82.29760742 54.61157227 C82.07767346 69.79603876 79.63378859 83.73165509 68.9453125 95.18359375 C50.46964101 112.43497375 23.36966322 108 0 108 C0 72.36 0 36.72 0 0 Z " fill="#D5A73B" transform="translate(936,427)"/>
<path d="M0 0 C62.22529644 0 62.22529644 0 72.1953125 8.9765625 C80.29646178 17.43643425 83.43396531 27.23200415 83.265625 38.77734375 C82.41829128 49.05749544 77.51863986 56.17753049 70 63 C64.52196382 67 64.52196382 67 61 67 C66.38790673 77.16307112 72.25777753 87.02663434 78.35546875 96.77734375 C78.72687988 97.37305176 79.09829102 97.96875977 79.48095703 98.58251953 C80.50501423 100.22054872 81.53552168 101.85454021 82.56640625 103.48828125 C84 106 84 106 84 108 C80.29334204 108.2917568 76.58962752 108.46835908 72.875 108.625 C71.82828125 108.70878906 70.7815625 108.79257812 69.703125 108.87890625 C66.54086418 108.97897779 64.03700405 108.90132812 61 108 C58.11171892 105.09374365 56.68470534 101.69666883 55 98 C53.89761924 96.04606384 52.77735831 94.1021216 51.640625 92.16796875 C50.50903088 90.17526548 49.37883174 88.18176941 48.25 86.1875 C47.67378906 85.17751953 47.09757813 84.16753906 46.50390625 83.12695312 C45.95089844 82.15048828 45.39789062 81.17402344 44.828125 80.16796875 C44.3321582 79.29422607 43.83619141 78.4204834 43.32519531 77.52026367 C42 75 42 75 40 70 C33.73 70 27.46 70 21 70 C21 82.54 21 95.08 21 108 C14.07 108 7.14 108 0 108 C0 72.36 0 36.72 0 0 Z " fill="#C99832" transform="translate(561,427)"/>
<path d="M0 0 C6.27 0 12.54 0 19 0 C19.01458252 1.47275391 19.02916504 2.94550781 19.04418945 4.46289062 C19.10235272 9.94978584 19.179585 15.43627841 19.26245117 20.92285156 C19.29561573 23.29322758 19.32367378 25.66368095 19.34643555 28.03417969 C19.38013688 31.45020376 19.43246209 34.8655243 19.48828125 38.28125 C19.49467117 39.33364868 19.5010611 40.38604736 19.50764465 41.47033691 C19.6491203 48.62077742 20.34048535 54.65415899 24.9375 60.4375 C29.1156138 63.60273773 33.89356344 63.52496077 39 63 C44.1877861 61.35720107 47.0255688 59.576048 50 55 C50.98964237 52.03107289 51.15273727 49.98850092 51.20532227 46.88598633 C51.22526749 45.84513382 51.24521271 44.80428131 51.26576233 43.73188782 C51.28247482 42.60993515 51.29918732 41.48798248 51.31640625 40.33203125 C51.33718735 39.18208176 51.35796844 38.03213226 51.37937927 36.84733582 C51.44483342 33.16911875 51.50374074 29.49082952 51.5625 25.8125 C51.60568913 23.32095604 51.64930355 20.82941941 51.69335938 18.33789062 C51.80051065 12.22533462 51.90178997 6.11270594 52 0 C58.27 0 64.54 0 71 0 C71 26.73 71 53.46 71 81 C65.06 81 59.12 81 53 81 C53 79.02 53 77.04 53 75 C52.18015625 75.42152344 51.3603125 75.84304688 50.515625 76.27734375 C49.43796875 76.82519531 48.3603125 77.37304688 47.25 77.9375 C46.18265625 78.48277344 45.1153125 79.02804687 44.015625 79.58984375 C36.32547377 83.18588597 27.27628138 82.91919339 19.125 80.80859375 C11.47269797 77.89678029 6.83169267 72.00580112 3 65 C-0.39236922 56.92293043 -0.13801109 48.55226279 -0.09765625 39.94140625 C-0.0962413 38.79711655 -0.09482635 37.65282684 -0.09336853 36.47386169 C-0.08779301 32.83671399 -0.07524498 29.19962895 -0.0625 25.5625 C-0.05748184 23.0891936 -0.05291948 20.61588623 -0.04882812 18.14257812 C-0.03783159 12.09502812 -0.02058381 6.04752467 0 0 Z " fill="#DCAF3F" transform="translate(658,454)"/>
<path d="M0 0 C34.77564496 0 34.77564496 0 42.5 7.27734375 C49.87356925 15.74542718 50.3400156 27.28814305 50.25 38 C50.26160156 39.38058594 50.26160156 39.38058594 50.2734375 40.7890625 C50.24541139 50.73833233 48.94677526 60.73426693 43 69 C29.44004208 80.56584646 22.00845589 76 0 76 C0 50.92 0 25.84 0 0 Z " fill="#030302" transform="translate(952,441)"/>
<path d="M0 0 C6.20732941 4.9376484 9.46747112 10.11189716 10.54708862 18.02810669 C10.96406607 22.46560216 10.87032607 26.91814355 10.84765625 31.37109375 C10.84553383 32.95435204 10.84553383 32.95435204 10.84336853 34.56959534 C10.83779722 37.92142643 10.82525002 41.27318929 10.8125 44.625 C10.80748129 46.90559799 10.80291903 49.18619703 10.79882812 51.46679688 C10.78783719 57.04039064 10.77059238 62.61393377 10.75 68.1875 C5.8 68.1875 0.85 68.1875 -4.25 68.1875 C-4.58 66.2075 -4.91 64.2275 -5.25 62.1875 C-6.075 62.950625 -6.9 63.71375 -7.75 64.5 C-12.19109587 68.17827234 -16.755966 69.84518161 -22.4375 70.625 C-30.29928806 69.7228276 -37.99385823 68.30446434 -43.4375 62.1875 C-44.98046875 60.1875 -44.98046875 60.1875 -46.25 58.1875 C-46.63027344 57.60484375 -47.01054688 57.0221875 -47.40234375 56.421875 C-49.66002083 50.47076307 -49.13542985 41.60344812 -47.5625 35.53515625 C-44.87005362 29.69030389 -40.48100491 26.38563226 -34.875 23.375 C-25.61927994 20.27789367 -14.57106671 21.19331051 -5.875 25.3125 C-5.33875 25.60125 -4.8025 25.89 -4.25 26.1875 C-4.62072532 18.61790942 -4.62072532 18.61790942 -8.25 12.1875 C-13.47111583 9.15925282 -18.25447714 8.35353629 -24.25 9.1875 C-27.31514312 10.52017092 -28.78891605 11.34973391 -30.40234375 14.28125 C-32.25 16.1875 -32.25 16.1875 -35.82421875 16.578125 C-37.19585748 16.5516199 -38.56721938 16.5040309 -39.9375 16.4375 C-40.9903418 16.41042969 -40.9903418 16.41042969 -42.06445312 16.3828125 C-43.79355436 16.33576213 -45.52195205 16.26401873 -47.25 16.1875 C-44.54199459 7.67324718 -40.18560367 1.7488622 -32.51171875 -2.85546875 C-22.0526456 -7.62588113 -9.67363955 -5.39491437 0 0 Z " fill="#C2922F" transform="translate(1223.25,465.8125)"/>
<path d="M0 0 C7.59 0 15.18 0 23 0 C24.36125 2.454375 25.7225 4.90875 27.125 7.4375 C30.18918682 12.93299799 33.34895718 18.26764178 37.00390625 23.3984375 C38 25 38 25 38 27 C38.66 27 39.32 27 40 27 C40.24105469 26.32710938 40.48210938 25.65421875 40.73046875 24.9609375 C42.29588106 21.30991432 44.25313811 18.01528833 46.3125 14.625 C46.69083984 13.99078125 47.06917969 13.3565625 47.45898438 12.703125 C48.22914801 11.42603471 49.01568157 10.1586761 49.81811523 8.90161133 C51.0303032 7.01171869 51.0303032 7.01171869 52.02758789 4.97924805 C53.1975366 2.90857253 54.14958643 1.50299238 56 0 C59.64253134 -0.84449223 63.09897657 -0.6644514 66.8125 -0.4375 C67.79154297 -0.40591797 68.77058594 -0.37433594 69.77929688 -0.34179688 C72.18928203 -0.2595047 74.59308593 -0.1446501 77 0 C73.52559263 6.69506137 69.74579677 13.06149217 65.625 19.375 C64.91923828 20.46204224 64.91923828 20.46204224 64.19921875 21.57104492 C61.97038967 24.99886465 59.7240433 28.41247247 57.44140625 31.8046875 C56.68945601 32.95270072 55.93811494 34.10111327 55.1875 35.25 C54.52105469 36.24515625 53.85460937 37.2403125 53.16796875 38.265625 C51.6862987 40.91103899 51.6862987 40.91103899 52.75683594 43.3840332 C53.9524618 45.89996626 55.24892098 48.22723623 56.72265625 50.58984375 C57.25737549 51.45053467 57.79209473 52.31122559 58.34301758 53.19799805 C58.91044678 54.10203369 59.47787598 55.00606934 60.0625 55.9375 C60.64088623 56.86667236 61.21927246 57.79584473 61.81518555 58.75317383 C65.95419308 65.38555939 70.17856686 71.9578669 74.48828125 78.48046875 C76 81 76 81 76 83 C68.7665055 84.53276982 61.02830892 85.81766637 54 83 C47.95466648 77.10821449 44.51108292 69.07019107 41.16308594 61.43017578 C40.11400238 58.8922966 40.11400238 58.8922966 38 57 C37.48614746 57.86165771 37.48614746 57.86165771 36.96191406 58.74072266 C35.39285917 61.36976365 33.82144975 63.99738984 32.25 66.625 C31.71117187 67.52863281 31.17234375 68.43226563 30.6171875 69.36328125 C29.56145773 71.12712245 28.49300954 72.88342206 27.41113281 74.63134766 C25.85285011 77.15592707 25.85285011 77.15592707 24.3125 80.625 C21.53337264 83.47923891 20.66651878 83.40665156 16.796875 83.5859375 C14.7804167 83.54613898 12.7643854 83.47469674 10.75 83.375 C9.203125 83.33439453 9.203125 83.33439453 7.625 83.29296875 C5.0812125 83.22230799 2.54166901 83.12372078 0 83 C4.13985894 75.10833341 8.70826871 67.61646551 13.625 60.1875 C14.27984375 59.19041016 14.9346875 58.19332031 15.609375 57.16601562 C16.24617187 56.19728516 16.88296875 55.22855469 17.5390625 54.23046875 C18.4367334 52.85640869 18.4367334 52.85640869 19.35253906 51.45458984 C20.33557655 49.98993974 21.3489556 48.5439594 22.42089844 47.14306641 C23.7334611 45.50116762 23.7334611 45.50116762 25 43 C24.70140814 40.50013969 24.70140814 40.50013969 23 38 C22.62762207 37.37416016 22.25524414 36.74832031 21.87158203 36.10351562 C20.4704923 33.79509843 19.02189468 31.52198086 17.5625 29.25 C17.03624023 28.42250244 16.50998047 27.59500488 15.96777344 26.74243164 C13.25884518 22.49184019 10.52232498 18.26016356 7.76171875 14.04296875 C7.25503662 13.26727539 6.74835449 12.49158203 6.22631836 11.69238281 C5.25636931 10.21091276 4.2820475 8.73229471 3.30297852 7.25683594 C0 2.22011476 0 2.22011476 0 0 Z " fill="#E2B644" transform="translate(742,452)"/>
<path d="M0 0 C7.23094783 -1.39225197 14.9460566 -2.60118054 22 0 C29.59706711 6.90893286 33.29689861 17.6442976 37 27 C39.55010359 24.65879648 41.2650024 22.16757529 43.06640625 19.21875 C43.9181543 17.83236328 43.9181543 17.83236328 44.78710938 16.41796875 C45.37298828 15.45503906 45.95886719 14.49210937 46.5625 13.5 C47.73011511 11.59353337 48.89806919 9.68727428 50.06640625 7.78125 C50.58146729 6.93626953 51.09652832 6.09128906 51.62719727 5.22070312 C52.71660286 3.45843507 53.85076704 1.72384944 55 0 C57.15478516 -0.34057617 57.15478516 -0.34057617 59.7890625 -0.29296875 C60.73007812 -0.28330078 61.67109375 -0.27363281 62.640625 -0.26367188 C64.11789062 -0.2259668 64.11789062 -0.2259668 65.625 -0.1875 C67.11386719 -0.16719727 67.11386719 -0.16719727 68.6328125 -0.14648438 C71.08908072 -0.11105743 73.54427285 -0.06166196 76 0 C71.95890022 7.65114892 67.57743488 14.98903604 62.875 22.25 C60.56882647 25.82432415 58.27583029 29.40628185 56 33 C55.55301758 33.68900391 55.10603516 34.37800781 54.64550781 35.08789062 C52.52978899 38.28534981 52.52978899 38.28534981 52.27783203 41.96582031 C53.01579453 44.04448953 53.89156655 45.74774859 55.046875 47.625 C55.47379639 48.32246338 55.90071777 49.01992676 56.34057617 49.73852539 C56.80568604 50.48481201 57.2707959 51.23109863 57.75 52 C58.22864502 52.77657959 58.70729004 53.55315918 59.20043945 54.35327148 C63.66133877 61.54866273 68.27536031 68.64464248 72.93457031 75.71289062 C73.4653418 76.52048828 73.99611328 77.32808594 74.54296875 78.16015625 C75.01758545 78.87824463 75.49220215 79.59633301 75.98120117 80.33618164 C77 82 77 82 77 83 C69.42654672 84.60391784 61.36564892 85.9169327 54 83 C47.09144752 76.46940302 42.50990049 66.7472309 39 58 C39 57.34 39 56.68 39 56 C38.34 56 37.68 56 37 56 C36.59793335 57.0813623 36.59793335 57.0813623 36.18774414 58.18457031 C34.99868423 61.0031189 33.61235014 63.45237763 31.99609375 66.046875 C31.13274414 67.43712891 31.13274414 67.43712891 30.25195312 68.85546875 C29.65318359 69.81066406 29.05441406 70.76585937 28.4375 71.75 C27.83486328 72.72066406 27.23222656 73.69132813 26.61132812 74.69140625 C22.15258291 81.84741709 22.15258291 81.84741709 21 83 C19.43827255 83.08685603 17.87270656 83.10702219 16.30859375 83.09765625 C15.36435547 83.09443359 14.42011719 83.09121094 13.44726562 83.08789062 C12.45404297 83.07951172 11.46082031 83.07113281 10.4375 83.0625 C9.44041016 83.05798828 8.44332031 83.05347656 7.41601562 83.04882812 C4.94395151 83.03700007 2.47200482 83.02051849 0 83 C1.32686979 79.42174976 2.91838057 76.33151654 4.9765625 73.12109375 C5.56171631 72.20521484 6.14687012 71.28933594 6.74975586 70.34570312 C7.36858643 69.38599609 7.98741699 68.42628906 8.625 67.4375 C9.25220947 66.45330078 9.87941895 65.46910156 10.52563477 64.45507812 C13.19297222 60.28424469 15.86608309 56.13097905 18.73828125 52.09765625 C19.46402344 51.07542969 20.18976562 50.05320312 20.9375 49 C21.87916016 47.7315625 21.87916016 47.7315625 22.83984375 46.4375 C24.39635627 43.16725147 23.8436021 41.49081365 23 38 C21.66748525 35.36036078 21.66748525 35.36036078 19.90234375 32.83984375 C19.2688501 31.88682373 18.63535645 30.93380371 17.98266602 29.9519043 C17.30776123 28.95715088 16.63285645 27.96239746 15.9375 26.9375 C14.56921642 24.88093716 13.20202166 22.82364948 11.8359375 20.765625 C11.17561523 19.77626953 10.51529297 18.78691406 9.83496094 17.76757812 C7.51970494 14.27559542 5.26497456 10.75148519 3.0625 7.1875 C2.45535156 6.21167969 1.84820313 5.23585938 1.22265625 4.23046875 C0 2 0 2 0 0 Z " fill="#DFB342" transform="translate(827,452)"/>
<path d="M0 0 C1.24998779 0.15992432 2.49997559 0.31984863 3.7878418 0.48461914 C11.39155498 1.24012348 19.0122542 1.18614912 26.6461277 1.22979546 C29.44177587 1.24637392 32.23729859 1.26961061 35.03288269 1.29469299 C42.97392426 1.36505023 50.91501206 1.42575958 58.85620117 1.47680664 C63.73073695 1.50860357 68.60511805 1.54986074 73.47952843 1.59700203 C75.3314404 1.61299332 77.18338776 1.62532812 79.03534889 1.63390923 C81.61983632 1.64607081 84.20395892 1.67021823 86.78833008 1.69702148 C87.930019 1.6979052 87.930019 1.6979052 89.09477234 1.69880676 C93.15505397 1.75456954 96.39171967 2.07805754 100 4 C102.59757188 6.73428619 103.93281888 8.69098609 104.12890625 12.51171875 C103.65241561 19.1728634 103.65241561 19.1728634 101.62890625 21.73828125 C98.05372145 24.50754909 94.37683826 24.1266885 90.04101562 24.12939453 C89.33648254 24.13114685 88.63194946 24.13289917 87.90606689 24.13470459 C85.57276963 24.13911087 83.23954807 24.13618688 80.90625 24.1328125 C79.27779119 24.13348649 77.64933249 24.13445732 76.02087402 24.13571167 C72.60114589 24.13718748 69.18144385 24.13504004 65.76171875 24.13037109 C61.40552915 24.12471003 57.04940167 24.12793038 52.69321442 24.13394356 C49.32490586 24.13758333 45.95661164 24.13639438 42.58830261 24.13381577 C40.98414604 24.13315402 39.37998812 24.13394826 37.77583313 24.13629532 C11.43128941 24.16634846 11.43128941 24.16634846 6 19 C2.27018036 13.18842057 -0.13973546 6.92854981 0 0 Z " fill="#CFA036" transform="translate(346,455)"/>
<path d="M0 0 C4.94672245 4.49702041 8.57157835 9.78683759 9.46875 16.515625 C9.54640408 25.79528786 8.71414625 32.85631878 2.28515625 39.87109375 C-4.33501879 45.9118224 -10.57069777 46.47277584 -19.3359375 46.234375 C-26.57938057 45.77104175 -30.2475662 44.11364092 -35.3125 38.875 C-40.59545892 32.45034073 -42.72490188 25.86496859 -42.40234375 17.54296875 C-41.10796671 9.36200316 -36.46436764 3.67266615 -30.1796875 -1.4375 C-21.05585377 -7.9778826 -8.80206017 -6.24459884 0 0 Z " fill="#CB9B34" transform="translate(1084,467)"/>
<path d="M0 0 C33.57142857 0 33.57142857 0 40.5 6.0625 C43.64000312 10.31179197 44.88762314 14.7423684 45 20 C44.0644605 26.02372885 41.81998949 30.14400841 37 34 C36.01 34.33 35.02 34.66 34 35 C34.39380859 35.63091553 34.78761719 36.26183105 35.19335938 36.91186523 C36.96454549 39.75231326 38.73231524 42.5948718 40.5 45.4375 C41.43005859 46.92733398 41.43005859 46.92733398 42.37890625 48.44726562 C43.25869141 49.86362305 43.25869141 49.86362305 44.15625 51.30859375 C44.70087891 52.18314209 45.24550781 53.05769043 45.80664062 53.95874023 C47 56 47 56 47 57 C42.40876337 57.89412027 38.55411948 58.18958502 34 57 C28.55444277 52.19797567 25.61928024 44.5482006 23 38 C19.04 38 15.08 38 11 38 C11 44.27 11 50.54 11 57 C7.37 57 3.74 57 0 57 C0 38.19 0 19.38 0 0 Z " fill="#DAAC3D" transform="translate(692,569)"/>
<path d="M0 0 C4.95 0 9.9 0 15 0 C15 5.61 15 11.22 15 17 C19.95 17 24.9 17 30 17 C30 21.29 30 25.58 30 30 C25.05 30 20.1 30 15 30 C15.11848296 35.4627881 15.24274719 40.92540299 15.37231445 46.38793945 C15.41556221 48.24532519 15.45724428 50.10274808 15.49731445 51.96020508 C15.5552637 54.63374008 15.61888652 57.30708981 15.68359375 59.98046875 C15.70030624 60.80773972 15.71701874 61.63501068 15.73423767 62.48735046 C15.75418289 63.26778214 15.77412811 64.04821381 15.79467773 64.85229492 C15.81799416 65.87488655 15.81799416 65.87488655 15.84178162 66.9181366 C16.02304592 69.30324196 16.53089347 71.65446735 17 74 C21.95 74.66 26.9 75.32 32 76 C32 80.29 32 84.58 32 89 C29.3118751 89.08164159 26.626277 89.14079668 23.9375 89.1875 C23.18533203 89.21263672 22.43316406 89.23777344 21.65820312 89.26367188 C15.06815402 89.34925693 10.5604087 87.97849763 5.25 83.875 C0.12597668 77.32763686 -0.43615342 69.99957057 -0.29296875 61.93359375 C-0.28872391 61.01409439 -0.28447906 60.09459503 -0.28010559 59.14723206 C-0.26346776 56.24367541 -0.22584467 53.34084274 -0.1875 50.4375 C-0.17243386 48.45508823 -0.15874886 46.47266546 -0.14648438 44.49023438 C-0.11361326 39.65988222 -0.06193611 34.83006336 0 30 C-3.63 30 -7.26 30 -11 30 C-11 25.71 -11 21.42 -11 17 C-7.37 17 -3.74 17 0 17 C0 11.39 0 5.78 0 0 Z " fill="#C79732" transform="translate(1137,445)"/>
<path d="M0 0 C4.29311874 3.61012258 6.39074929 6.64744626 7.1328125 12.15234375 C7.37542188 18.56531841 6.96637136 24.23636576 2.75 29.3125 C-6.1072829 36.68100556 -15.75796941 36.99859393 -26.8125 36.10546875 C-32.94480697 35.13664942 -37.28725689 32.05448756 -41.25 27.3125 C-44.0193839 21.87296093 -43.90293158 16.27979874 -43.25 10.3125 C-41.6875 7.1875 -41.6875 7.1875 -39.25 5.3125 C-36.92126625 4.62994011 -34.58817209 3.96199225 -32.25 3.3125 C-31.93289063 2.66925781 -31.61578125 2.02601563 -31.2890625 1.36328125 C-30.25 -0.6875 -30.25 -0.6875 -28.4375 -1.734375 C-18.68755532 -4.86828579 -9.21301688 -4.78368184 0 0 Z " fill="#C08F2D" transform="translate(1089.25,522.6875)"/>
<path d="M0 0 C13.2 0 26.4 0 40 0 C40 3.63 40 7.26 40 11 C30.76 11 21.52 11 12 11 C12 14.96 12 18.92 12 23 C20.25 23 28.5 23 37 23 C37 26.3 37 29.6 37 33 C28.75 33 20.5 33 12 33 C12 37.29 12 41.58 12 46 C21.57 46 31.14 46 41 46 C41 49.63 41 53.26 41 57 C27.47 57 13.94 57 0 57 C0 38.19 0 19.38 0 0 Z " fill="#CF9F37" transform="translate(629,569)"/>
<path d="M0 0 C3.95377242 3.14504624 6.36666725 5.49444704 7.5 10.5 C7.5825 11.386875 7.665 12.27375 7.75 13.1875 C-2.41550164 13.81846217 -2.41550164 13.81846217 -5.8125 11.25 C-6.286875 10.569375 -6.76125 9.88875 -7.25 9.1875 C-10.94782533 7.33858733 -15.21339864 7.71948825 -19.25 8.1875 C-22.0517483 9.6506891 -22.0517483 9.6506891 -23.25 12.1875 C-22.87594377 14.7982614 -22.87594377 14.7982614 -22.25 17.1875 C-21.52296875 17.36925781 -20.7959375 17.55101562 -20.046875 17.73828125 C-17.92861085 18.26784729 -15.81150064 18.8020418 -13.6953125 19.33984375 C-11.46918389 19.88754206 -9.23475363 20.40296596 -6.9921875 20.87890625 C0.18685299 22.45325724 4.58098631 24.01016377 9.125 30 C10.93908779 36.34930728 9.87070843 41.48413633 6.75 47.1875 C3.19013564 51.66275805 -0.67079792 54.07336056 -6.25 55.1875 C-15.47633586 56.12454974 -23.66906981 56.00100716 -31.25 50.1875 C-35.11395254 46.33251255 -36.84657613 42.70095955 -37.25 37.1875 C-35.31440687 37.05245862 -33.376128 36.95548871 -31.4375 36.875 C-30.35855469 36.81699219 -29.27960937 36.75898437 -28.16796875 36.69921875 C-27.20503906 36.86035156 -26.24210938 37.02148438 -25.25 37.1875 C-23.55078125 39.64453125 -23.55078125 39.64453125 -22.25 42.1875 C-18.94216735 43.29011088 -16.29440731 43.42490779 -12.8125 43.5 C-11.11287109 43.55607422 -11.11287109 43.55607422 -9.37890625 43.61328125 C-6.1869022 43.418977 -6.1869022 43.418977 -3.77734375 41.48046875 C-1.95329235 39.26176546 -1.95329235 39.26176546 -2.5 36.4375 C-2.7475 35.695 -2.995 34.9525 -3.25 34.1875 C-3.97703125 34.00574219 -4.7040625 33.82398438 -5.453125 33.63671875 C-7.57292307 33.10676923 -9.691319 32.57119256 -11.80859375 32.03125 C-14.02002851 31.48905941 -16.24151567 30.98559135 -18.47265625 30.53125 C-25.0862761 29.12658738 -29.76220783 27.40147213 -34.25 22.1875 C-36.37816893 17.93116214 -35.83359583 12.79848484 -35.25 8.1875 C-33.07266951 2.8345373 -29.57948479 0.00060435 -24.375 -2.3125 C-15.95548088 -5.16101994 -7.74228109 -4.31781061 0 0 Z " fill="#CD9B34" transform="translate(598.25,571.8125)"/>
<path d="M0 0 C12.87 0 25.74 0 39 0 C39 3.63 39 7.26 39 11 C29.76 11 20.52 11 11 11 C11 14.96 11 18.92 11 23 C19.58 23 28.16 23 37 23 C37 26.3 37 29.6 37 33 C28.42 33 19.84 33 11 33 C11 37.29 11 41.58 11 46 C20.57 46 30.14 46 40 46 C40.495 51.445 40.495 51.445 41 57 C27.47 57 13.94 57 0 57 C0 38.19 0 19.38 0 0 Z " fill="#D0A036" transform="translate(937,569)"/>
<path d="M0 0 C3.68004754 3.07042351 5.68839199 5.77582568 6.875 10.4375 C6.91625 11.283125 6.9575 12.12875 7 13 C3.2900766 13.29237575 -0.29916602 13.44874592 -4 13 C-5.66666667 11.33333333 -7.33333333 9.66666667 -9 8 C-13.71022411 7.2066991 -18.2497751 6.85461075 -22.33984375 9.53125 C-23.16162109 10.25828125 -23.16162109 10.25828125 -24 11 C-23.67 12.98 -23.34 14.96 -23 17 C-17.78458829 18.69698863 -12.66996303 20.1226946 -7.25 21 C-1.64263112 21.97278755 2.35712097 23.22391457 6.3125 27.5 C9.15496256 31.71105565 9.32770618 35.00248071 9 40 C8.01720876 44.14784335 6.75976307 47.1968219 3.8125 50.3125 C-4.62042156 55.37225293 -12.23984633 55.9407377 -22 55 C-28.11096377 53.41811724 -32.78421243 49.40073034 -36 44 C-36.71830614 41.55490493 -36.89500571 39.57236018 -37 37 C-33.37 37 -29.74 37 -26 37 C-25.34 38.32 -24.68 39.64 -24 41 C-20.66632957 43.39963521 -17.45120087 43.26826485 -13.4375 43.25 C-12.30183594 43.25515625 -11.16617188 43.2603125 -9.99609375 43.265625 C-6.81853574 43.22500727 -6.81853574 43.22500727 -4 41 C-3.74984127 37.41642759 -3.74984127 37.41642759 -4 34 C-7.53003151 32.38920892 -10.89612929 31.6045896 -14.72387695 31.01196289 C-22.62385268 29.78471944 -29.10254166 28.30001273 -34.6640625 22.1640625 C-37.20249641 18.05209646 -36.76421252 13.64165144 -36 9 C-33.9657615 4.17409378 -31.29689261 0.21656505 -26.4375 -2 C-16.80021726 -4.80357316 -8.91827486 -5.07701457 0 0 Z " fill="#CA9A33" transform="translate(1033,572)"/>
<path d="M0 0 C4.51529079 2.98937236 7.48919488 7.11166692 9.875 11.9375 C9.875 12.9275 9.875 13.9175 9.875 14.9375 C0.44557271 15.8582759 0.44557271 15.8582759 -3.34375 13.63671875 C-5.03085254 12.13905781 -6.5723929 10.57158503 -8.125 8.9375 C-11.64708087 7.17645957 -15.28103392 7.41721797 -19.125 7.9375 C-23.15784913 9.36290357 -26.15097875 11.21825443 -28.2890625 14.9921875 C-31.09106959 22.56022535 -30.67193677 29.29668968 -28.125 36.9375 C-27.795 37.9275 -27.465 38.9175 -27.125 39.9375 C-25.20833333 41.10416667 -25.20833333 41.10416667 -23.125 41.9375 C-22.465 42.2675 -21.805 42.5975 -21.125 42.9375 C-12.93988148 43.7712293 -12.93988148 43.7712293 -5.4375 41.0625 C-3.0846724 39.15350758 -3.0846724 39.15350758 -2.125 36.9375 C1.835 36.9375 5.795 36.9375 9.875 36.9375 C8.56707299 43.47713507 6.06498684 47.41940792 0.81640625 51.5625 C-6.66693984 56.00455367 -14.73640202 55.98394782 -23.125 54.9375 C-30.02102863 52.92541967 -35.38693827 49.09362041 -39.125 42.9375 C-43.68872009 34.16660045 -44.6849418 24.71263186 -42.46484375 15.0703125 C-39.78801424 7.44540421 -35.07278314 2.28294559 -27.9375 -1.4375 C-18.74996094 -5.7412352 -8.77986259 -4.84060865 0 0 Z " fill="#D1A237" transform="translate(905.125,572.0625)"/>
<path d="M0 0 C5.176875 -0.061875 10.35375 -0.12375 15.6875 -0.1875 C17.31260498 -0.21481201 18.93770996 -0.24212402 20.61206055 -0.27026367 C21.89894775 -0.27775635 23.18583496 -0.28524902 24.51171875 -0.29296875 C25.82615967 -0.3086792 27.14060059 -0.32438965 28.49487305 -0.34057617 C32.91933633 0.08932745 35.50296198 1.46599808 38.58203125 4.62109375 C42.59087932 10.5389171 42.889285 15.99441041 42 23 C40.2660912 28.29805465 37.38812197 30.80032773 33 34 C29.52217417 35.15927528 26.81196743 35.11313066 23.14453125 35.09765625 C21.93385986 35.09515869 20.72318848 35.09266113 19.47583008 35.09008789 C17.93693115 35.08098389 16.39803223 35.07187988 14.8125 35.0625 C9.924375 35.041875 5.03625 35.02125 0 35 C0 23.45 0 11.9 0 0 Z " fill="#030302" transform="translate(582,445)"/>
<path d="M0 0 C4.95 0 9.9 0 15 0 C15 30.03 15 60.06 15 91 C10.05 91 5.1 91 0 91 C0 60.97 0 30.94 0 0 Z " fill="#C79731" transform="translate(1243,443)"/>
<path d="M0 0 C3.96 0 7.92 0 12 0 C23.43489471 27.02793296 23.43489471 27.02793296 26.4921875 38.34765625 C26.86552249 40.02158294 26.86552249 40.02158294 28 41 C35.425 20.705 35.425 20.705 43 0 C47.29 0 51.58 0 56 0 C54.03629655 6.03060229 51.91284872 11.94875447 49.56640625 17.83984375 C49.24719711 18.64684219 48.92798798 19.45384064 48.59910583 20.28529358 C47.58916608 22.83693212 46.57588097 25.38722647 45.5625 27.9375 C44.88715143 29.64249165 44.21201956 31.34756915 43.53710938 33.05273438 C40.37352632 41.04134221 37.19812012 49.02514804 34 57 C30.04 57 26.08 57 22 57 C17.94728718 48.34328623 14.41187403 39.54603438 11 30.625 C10.48728431 29.2915493 9.97426459 27.95821546 9.4609375 26.625 C8.45667924 24.01577046 7.45575927 21.40529612 6.45703125 18.79394531 C5.48588076 16.25778353 4.50353505 13.72639175 3.51171875 11.19824219 C3.05410156 10.02680664 2.59648438 8.85537109 2.125 7.6484375 C1.71507812 6.60606934 1.30515625 5.56370117 0.8828125 4.48974609 C0 2 0 2 0 0 Z " fill="#D9AB3D" transform="translate(755,569)"/>
<path d="M0 0 C7.80960458 -0.27988085 15.61790901 -0.47193023 23.43139648 -0.60424805 C26.08841986 -0.65321984 28.73886149 -0.73430117 31.39526367 -0.82983398 C35.22137371 -0.96394506 39.04305513 -1.02578835 42.87109375 -1.07421875 C44.04957382 -1.13099289 45.22805389 -1.18776703 46.44224548 -1.2462616 C51.57203494 -1.25006535 54.72181255 -1.1200067 58.67263794 2.34188843 C60.97496996 5.13557948 62.99935799 7.98527179 65 11 C66.33967029 12.71972488 67.69145525 14.43018248 69.0625 16.125 C72 19.86848073 72 19.86848073 72 21 C64.31422374 21.22882296 56.6293299 21.38606337 48.94091797 21.49438477 C46.32762836 21.53955313 43.71456504 21.60090364 41.10205078 21.67895508 C37.33829906 21.78855805 33.57756022 21.83926364 29.8125 21.87890625 C28.65073242 21.92535782 27.48896484 21.97180939 26.29199219 22.01966858 C18.30152459 22.02460413 18.30152459 22.02460413 14.52392578 19.05075073 C12.49708284 16.788797 10.73240669 14.49151464 9 12 C8.09445243 10.90735528 7.17918506 9.8226155 6.25 8.75 C5.5075 7.8425 4.765 6.935 4 6 C3.236875 5.071875 2.47375 4.14375 1.6875 3.1875 C0 1 0 1 0 0 Z " fill="#C99932" transform="translate(373,558)"/>
<path d="M0 0 C7.16781027 -0.26481529 14.33019356 -0.40084921 21.50268555 -0.45166016 C23.93650565 -0.48358863 26.37013812 -0.54392861 28.80249023 -0.63427734 C50.07796801 -1.39364824 50.07796801 -1.39364824 56.47119141 4.453125 C61.42515814 9.99574094 64.80891385 16.32504341 68 23 C17.43859688 21.82836236 17.43859688 21.82836236 8.98046875 14.171875 C7.18242963 12.18835395 5.57081045 10.1666351 4 8 C3.56558594 7.4121875 3.13117188 6.824375 2.68359375 6.21875 C0 2.40374564 0 2.40374564 0 0 Z " fill="#C79631" transform="translate(403,594)"/>
<path d="M0 0 C4.62 0 9.24 0 14 0 C14 23.76 14 47.52 14 72 C9.38 72 4.76 72 0 72 C0 48.24 0 24.48 0 0 Z " fill="#C69530" transform="translate(1104,462)"/>
<path d="M0 0 C4.29 0 8.58 0 13 0 C13 20.46 13 40.92 13 62 C8.71 62 4.42 62 0 62 C0 41.54 0 21.08 0 0 Z " fill="#CD9D35" transform="translate(1023,472)"/>
<path d="M0 0 C3.96 0 7.92 0 12 0 C12.02503482 5.70678399 12.04301561 11.41353483 12.05493164 17.12036133 C12.05990815 19.05493732 12.06669175 20.98950965 12.07543945 22.92407227 C12.12566728 34.33169847 11.981017 45.62927193 11 57 C7.7 57 4.4 57 1 57 C0.85494612 51.45400364 0.71266825 45.90794481 0.57275391 40.36181641 C0.52497907 38.48256599 0.47649897 36.60333335 0.42724609 34.72412109 C0.1243486 23.14601878 -0.07419344 11.58242001 0 0 Z " fill="#D4A63C" transform="translate(829,569)"/>
<path d="M0 0 C1.10698242 -0.01643555 1.10698242 -0.01643555 2.23632812 -0.03320312 C7.41981679 0.03591006 10.45771878 1.16828369 14.5625 4.5625 C16.13185594 7.70121188 15.91451103 10.10105822 15.5625 13.5625 C13.02112841 16.72204305 11.41627341 18.27790886 7.5625 19.5625 C5.06982972 19.6844395 2.61738198 19.74761037 0.125 19.75 C-1.19371094 19.76417969 -2.51242187 19.77835938 -3.87109375 19.79296875 C-7.1294607 19.58240615 -8.82061349 19.42463437 -11.4375 17.5625 C-13.45221597 14.54042605 -13.77469034 13.64523301 -13.875 10.1875 C-13.91496094 9.43726563 -13.95492188 8.68703125 -13.99609375 7.9140625 C-12.22830447 0.47204049 -6.47954144 -0.20829108 0 0 Z " fill="#040302" transform="translate(1202.4375,500.4375)"/>
<path d="M0 0 C3.75212276 2.01502889 5.63644095 3.45466142 8 7 C8.68343706 10.77688904 8.85107095 14.47186889 6.94921875 17.88671875 C4.54513871 20.81558322 2.65111533 22.81885245 -1.171875 23.23828125 C-7.16622263 23.4108458 -10.43383865 22.98075605 -15 19 C-16.85110583 15.29778834 -16.46454795 11.04093083 -16 7 C-12.26369403 0.59490405 -7.26751941 -1.16000791 0 0 Z " fill="#050402" transform="translate(1072,476)"/>
<path d="M0 0 C2.536875 -0.061875 5.07375 -0.12375 7.6875 -0.1875 C8.47729248 -0.21481201 9.26708496 -0.24212402 10.08081055 -0.27026367 C14.62090198 -0.3236495 17.37900572 0.25136763 21 3 C22 4 22 4 22.3125 7.8125 C22.28363496 11.03383889 22.17080745 11.77795032 20.125 14.4375 C16.09688693 17.39934785 12.70504166 17.11631529 7.875 17.0625 C5.27625 17.041875 2.6775 17.02125 0 17 C0 11.39 0 5.78 0 0 Z " fill="#070503" transform="translate(703,580)"/>
<path d="M0 0 C2.15625 0.55078125 2.15625 0.55078125 5.15625 3.17578125 C7.20482032 6.63274367 8.23974136 8.54319601 8.15625 12.55078125 C6.56401547 15.61730701 5.07848188 17.79323363 2.40625 19.98828125 C-1.16820943 20.88189611 -4.32866377 20.63844113 -7.84375 19.55078125 C-10.56786796 17.37148688 -11.6010887 15.82648638 -12.25390625 12.39453125 C-12.52459659 8.23006451 -12.17135046 6.06860133 -9.90625 2.48828125 C-6.35192255 0.23962511 -4.14966861 -0.242064 0 0 Z " fill="#D5A83B" transform="translate(1112.84375,433.44921875)"/>
<path d="M0 0 C1.95099609 0.00193359 1.95099609 0.00193359 3.94140625 0.00390625 C7.50956222 0.44643733 8.98717844 0.85917657 11.4375 3.4375 C12 6.3125 12 6.3125 11.4375 9.4375 C8.44537765 13.07656772 6.18691717 15.16517678 1.38671875 15.640625 C-3.70191319 15.74608887 -7.1789539 15.32422548 -11.5625 12.4375 C-13.5625 9.4375 -13.5625 9.4375 -13.5 7 C-11.15552774 0.59177581 -6.22348508 -0.09270335 0 0 Z " fill="#050402" transform="translate(1071.5625,531.5625)"/>
<path d="M0 0 C6.91931987 -0.05104886 13.83859048 -0.085879 20.75805664 -0.10986328 C23.10801 -0.11987064 25.45795107 -0.13348067 27.80786133 -0.15087891 C31.20136566 -0.17535995 34.59470418 -0.1865361 37.98828125 -0.1953125 C39.02519608 -0.20563507 40.0621109 -0.21595764 41.13044739 -0.22659302 C52.72743243 -0.22834452 63.30227929 0.96966783 72.1953125 8.9765625 C80.29646178 17.43643425 83.43396531 27.23200415 83.265625 38.77734375 C82.4121369 49.13216263 77.42336204 56.01411049 70 63 C69.01 63.66 68.02 64.32 67 65 C65.515 64.505 65.515 64.505 64 64 C64.50789062 63.6596875 65.01578125 63.319375 65.5390625 62.96875 C72.63708172 57.97089377 77.74506854 52.54608727 80 44 C80.21144227 41.3253926 80.33334937 38.79435175 80.3125 36.125 C80.30976074 35.41972168 80.30702148 34.71444336 80.30419922 33.98779297 C80.18017484 27.81936215 79.51931313 22.51931313 75 18 C74.773125 17.2575 74.54625 16.515 74.3125 15.75 C71.88402797 10.66177288 67.1104499 7.23203444 62 5 C60.00889599 4.61709538 58.00899487 4.27395385 56 4 C56 3.34 56 2.68 56 2 C38.18 2 20.36 2 2 2 C2 14.54 2 27.08 2 40 C1.67 40 1.34 40 1 40 C-0.01125055 31.25673005 -0.11957711 22.60676561 -0.0625 13.8125 C-0.05746963 12.46549648 -0.05290947 11.11849111 -0.04882812 9.77148438 C-0.03715354 6.51427463 -0.02077883 3.25716222 0 0 Z " fill="#E5B540" transform="translate(561,427)"/>
<path d="M0 0 C13.2 0 26.4 0 40 0 C40 3.63 40 7.26 40 11 C30.43 11 20.86 11 11 11 C11.33 10.34 11.66 9.68 12 9 C20.58 9 29.16 9 38 9 C38 6.69 38 4.38 38 2 C26.12 2 14.24 2 2 2 C2 19.82 2 37.64 2 56 C14.54 56 27.08 56 40 56 C40.495 55.01 40.495 55.01 41 54 C41 54.99 41 55.98 41 57 C27.47 57 13.94 57 0 57 C0 38.19 0 19.38 0 0 Z " fill="#EAB73F" transform="translate(629,569)"/>
<path d="M0 0 C3.02017344 0.48300568 4.29220345 0.8197485 6.125 3.33984375 C7.41474252 7.74363563 7.62005002 11.1269712 5.875 15.40234375 C2.11579799 18.05087244 -0.84477196 18.04341833 -5.3671875 17.8203125 C-7.875 17.33984375 -7.875 17.33984375 -10.0625 15.27734375 C-11.40438398 10.42591706 -11.68507849 6.99522154 -9.4375 2.40234375 C-6.16386513 -0.23253309 -4.10564333 -0.27686082 0 0 Z " fill="#D7AA3C" transform="translate(1030.875,446.66015625)"/>
<path d="M0 0 C3.96 0 7.92 0 12 0 C12.02503482 5.70678399 12.04301561 11.41353483 12.05493164 17.12036133 C12.05990815 19.05493732 12.06669175 20.98950965 12.07543945 22.92407227 C12.12566728 34.33169847 11.981017 45.62927193 11 57 C7.7 57 4.4 57 1 57 C0.85494612 51.45400364 0.71266825 45.90794481 0.57275391 40.36181641 C0.52497907 38.48256599 0.47649897 36.60333335 0.42724609 34.72412109 C0.1243486 23.14601878 -0.07419344 11.58242001 0 0 Z M2 2 C2 19.82 2 37.64 2 56 C4.64 56 7.28 56 10 56 C10 38.18 10 20.36 10 2 C7.36 2 4.72 2 2 2 Z " fill="#EEC445" transform="translate(829,569)"/>
<path d="M0 0 C27 0 27 0 31 2 C21.43 2 11.86 2 2 2 C2 19.82 2 37.64 2 56 C4.64 56 7.28 56 10 56 C10 50.06 10 44.12 10 38 C10.33 38 10.66 38 11 38 C11 44.27 11 50.54 11 57 C7.37 57 3.74 57 0 57 C0 38.19 0 19.38 0 0 Z " fill="#EABB42" transform="translate(692,569)"/>
<path d="M0 0 C0.33 0 0.66 0 1 0 C1 3.3 1 6.6 1 10 C1.66 10 2.32 10 3 10 C3 21.55 3 33.1 3 45 C4.485 44.505 4.485 44.505 6 44 C8.18429961 43.85530754 10.37361001 43.77934825 12.5625 43.75 C14.29693359 43.71132813 14.29693359 43.71132813 16.06640625 43.671875 C17.03449219 43.78015625 18.00257813 43.8884375 19 44 C19.66 44.99 20.32 45.98 21 47 C14.07 47 7.14 47 0 47 C0 31.49 0 15.98 0 0 Z " fill="#B88224" transform="translate(561,488)"/>
<path d="M0 0 C15.42150079 -0.07031951 30.84298946 -0.12309994 46.26461315 -0.15543652 C53.42638216 -0.17085516 60.58805111 -0.19184796 67.74975586 -0.22631836 C73.99746963 -0.25637505 80.24511087 -0.27561129 86.49289495 -0.28226548 C89.79603237 -0.28615046 93.09891605 -0.2967886 96.40199852 -0.31719017 C100.10430298 -0.33913702 103.80618532 -0.34195968 107.50854492 -0.34057617 C109.12156998 -0.35675491 109.12156998 -0.35675491 110.7671814 -0.3732605 C118.50501372 -0.34220588 125.53510204 0.99988994 133 3 C133 3.66 133 4.32 133 5 C132.34773437 4.86722656 131.69546875 4.73445313 131.0234375 4.59765625 C130.14945313 4.42105469 129.27546875 4.24445313 128.375 4.0625 C127.51648438 3.88847656 126.65796875 3.71445312 125.7734375 3.53515625 C124.85820312 3.35855469 123.94296875 3.18195313 123 3 C121.77970596 2.74229576 121.77970596 2.74229576 120.53475952 2.47938538 C115.57650072 1.80694451 110.66899281 1.82173895 105.67041016 1.79467773 C103.97197464 1.77982834 103.97197464 1.77982834 102.23922729 1.76467896 C98.50586012 1.73315408 94.77248023 1.70834211 91.0390625 1.68359375 C88.44688592 1.66301645 85.85471265 1.64201977 83.26254272 1.62062073 C77.14288505 1.57111272 71.02320955 1.52582671 64.90350473 1.48259836 C57.9336978 1.43312855 50.96393674 1.37824672 43.99417424 1.32291877 C29.66282595 1.20927329 15.33143286 1.10239664 1 1 C1 2.98 1 4.96 1 7 C0.67 7 0.34 7 0 7 C0 4.69 0 2.38 0 0 Z " fill="#FEE54E" transform="translate(321,390)"/>
<path d="M0 0 C0.33 0.66 0.66 1.32 1 2 C2.65 2 4.3 2 6 2 C6.66 3.32 7.32 4.64 8 6 C6.9941687 5.51781006 6.9941687 5.51781006 5.96801758 5.02587891 C2.37412704 3.78367046 -0.68745701 3.67679386 -4.48828125 3.5859375 C-5.77516846 3.55032715 -7.06205566 3.5147168 -8.38793945 3.47802734 C-10.82559692 3.42702881 -10.82559692 3.42702881 -13.3125 3.375 C-18.489375 3.25125 -23.66625 3.1275 -29 3 C-29 14.55 -29 26.1 -29 38 C-29.33 38 -29.66 38 -30 38 C-30 25.79 -30 13.58 -30 1 C-15.15 0.505 -15.15 0.505 0 0 Z " fill="#E3B23C" transform="translate(611,442)"/>
<path d="M0 0 C4.95 0 9.9 0 15 0 C15 5.28 15 10.56 15 16 C14.67 16 14.34 16 14 16 C14 11.05 14 6.1 14 1 C12.55625 1.12375 11.1125 1.2475 9.625 1.375 C8.81289062 1.44460938 8.00078125 1.51421875 7.1640625 1.5859375 C4.79665809 1.82892588 4.79665809 1.82892588 3 4 C2.57277047 7.08917709 2.57277047 7.08917709 2.4375 10.5625 C2.09722222 16.90277778 2.09722222 16.90277778 1 18 C-2.6691577 18.14310287 -6.32715441 18.04221662 -10 18 C-10 21.96 -10 25.92 -10 30 C-10.33 30 -10.66 30 -11 30 C-11 25.71 -11 21.42 -11 17 C-7.37 17 -3.74 17 0 17 C0 11.39 0 5.78 0 0 Z " fill="#F1C544" transform="translate(1137,445)"/>
<path d="M0 0 C1.91172317 0.05291967 3.82266113 0.14799816 5.73046875 0.28125 C6.70951172 0.31734375 7.68855469 0.3534375 8.69726562 0.390625 C11.10818994 0.48470985 13.51105312 0.61593549 15.91796875 0.78125 C14.96652277 2.59737488 14.00659942 4.40906081 13.04296875 6.21875 C12.50929688 7.22808594 11.975625 8.23742187 11.42578125 9.27734375 C9.91796875 11.78125 9.91796875 11.78125 7.91796875 12.78125 C8.24796875 12.018125 8.57796875 11.255 8.91796875 10.46875 C10.09233561 7.79055865 10.09233561 7.79055865 9.91796875 4.78125 C9.91796875 4.12125 9.91796875 3.46125 9.91796875 2.78125 C7.9801261 2.92245714 6.0426992 3.06937873 4.10546875 3.21875 C2.48705078 3.34056641 2.48705078 3.34056641 0.8359375 3.46484375 C-2.1419303 3.68337461 -2.1419303 3.68337461 -5.08203125 4.78125 C-6.47915399 6.73722184 -7.81983032 8.73561401 -9.08203125 10.78125 C-10.08203125 8.78125 -10.08203125 8.78125 -9.46606445 6.85351562 C-7.02339842 2.23571613 -5.37869209 0.25710207 0 0 Z " fill="#F6D653" transform="translate(887.08203125,451.21875)"/>
<path d="M0 0 C7.59 0 15.18 0 23 0 C25.475 4.455 25.475 4.455 28 9 C27.67 9.66 27.34 10.32 27 11 C26.4225 10.05125 25.845 9.1025 25.25 8.125 C22.73080733 4.60861682 22.73080733 4.60861682 19 3 C16.22605167 2.7047806 13.5299489 2.49287769 10.75 2.375 C10.00492188 2.33632813 9.25984375 2.29765625 8.4921875 2.2578125 C6.6618476 2.16394892 4.83095857 2.08090282 3 2 C3.66 3.65 4.32 5.3 5 7 C3.29115995 5.37660195 1.62553283 3.70680947 0 2 C0 1.34 0 0.68 0 0 Z " fill="#F5D854" transform="translate(742,452)"/>
<path d="M0 0 C6.93 0 13.86 0 21 0 C21 0.66 21 1.32 21 2 C16.05 2.33 11.1 2.66 6 3 C5.67 3.99 5.34 4.98 5 6 C6.87178116 9.18288354 6.87178116 9.18288354 9 12 C8.67 12.66 8.34 13.32 8 14 C6.84669053 12.42210402 5.70262073 10.8374518 4.5625 9.25 C3.92441406 8.36828125 3.28632812 7.4865625 2.62890625 6.578125 C1 4 1 4 0 0 Z " fill="#F6D954" transform="translate(827,452)"/>
<path d="M0 0 C0.33 0 0.66 0 1 0 C1 3.3 1 6.6 1 10 C1.66 10 2.32 10 3 10 C3.12852505 18.72542301 2.79645684 27.31008699 2 36 C1.67 36 1.34 36 1 36 C-0.03330247 23.98785879 -0.11317227 12.05023529 0 0 Z " fill="#C38B27" transform="translate(561,488)"/>
<path d="M0 0 C8.31206033 6.61572149 15.46368727 14.79626432 19 25 C18.67 25.99 18.34 26.98 18 28 C17.50371094 27.01 17.00742187 26.02 16.49609375 25 C10.14079709 12.47973604 10.14079709 12.47973604 0 3 C0 2.01 0 1.02 0 0 Z " fill="#EABE41" transform="translate(489,412)"/>
<path d="M0 0 C6.93 0 13.86 0 21 0 C19.68 2.31 18.36 4.62 17 7 C16.67 6.34 16.34 5.68 16 5 C16.33 4.34 16.66 3.68 17 3 C11.06 2.67 5.12 2.34 -1 2 C-0.67 1.34 -0.34 0.68 0 0 Z " fill="#F8DC55" transform="translate(798,452)"/>
<path d="M0 0 C4.29 0 8.58 0 13 0 C12.34 1.98 11.68 3.96 11 6 C10.34 5.67 9.68 5.34 9 5 C9.33 4.01 9.66 3.02 10 2 C7.6568787 2.25561323 5.32156597 2.59270772 3 3 C2.67 3.66 2.34 4.32 2 5 C1.34 5 0.68 5 0 5 C-0.66 6.32 -1.32 7.64 -2 9 C-1.34 6.03 -0.68 3.06 0 0 Z " fill="#E8C044" transform="translate(798,569)"/>
<path d="M0 0 C-3 2 -3 2 -6.375 3.8125 C-9.80127616 5.74657132 -12.32669123 8.09755048 -15 11 C-15.66 11.66 -16.32 12.32 -17 13 C-16.4938686 8.57135029 -15.15110054 6.15110054 -12 3 C-7.88726249 0.83146567 -4.66706537 -0.42427867 0 0 Z " fill="#E1AF3A" transform="translate(1015,569)"/>
<path d="M0 0 C3.96 0 7.92 0 12 0 C12 0.66 12 1.32 12 2 C8.7 2 5.4 2 2 2 C2.99 4.64 3.98 7.28 5 10 C4.34 10 3.68 10 3 10 C2.01 6.7 1.02 3.4 0 0 Z " fill="#EFC647" transform="translate(755,569)"/>
<path d="M0 0 C11.52164009 -0.3690205 11.52164009 -0.3690205 17 2 C17 2.99 17 3.98 17 5 C16.47921875 4.68289063 15.9584375 4.36578125 15.421875 4.0390625 C12.32591291 2.71079489 9.60595879 2.57635753 6.25 2.375 C4.49429687 2.26285156 4.49429687 2.26285156 2.703125 2.1484375 C1.81109375 2.09945313 0.9190625 2.05046875 0 2 C0 1.34 0 0.68 0 0 Z " fill="#DAAB39" transform="translate(1200,461)"/>
<path d="M0 0 C1.35432675 1.31200404 2.68733482 2.64631404 4 4 C4 4.33 4 4.66 4 5 C-7.385 4.505 -7.385 4.505 -19 4 C-19 3.67 -19 3.34 -19 3 C-12.73 2.67 -6.46 2.34 0 2 C0 1.34 0 0.68 0 0 Z " fill="#E8B33B" transform="translate(467,612)"/>
<path d="M0 0 C0 0.66 0 1.32 0 2 C0.70125 2.226875 1.4025 2.45375 2.125 2.6875 C6.24321571 4.567555 10.20709928 6.90447666 11.875 11.3125 C11.91625 11.869375 11.9575 12.42625 12 13 C11.29875 12.2575 10.5975 11.515 9.875 10.75 C5.33209299 6.40461068 1.05294226 3.72941207 -5 2 C-2 0 -2 0 0 0 Z " fill="#EDC646" transform="translate(986,440)"/>
<path d="M0 0 C2.2922454 0.30822621 4.58378455 0.62170874 6.875 0.9375 C8.15117187 1.11152344 9.42734375 1.28554688 10.7421875 1.46484375 C14 2 14 2 16 3 C16 3.66 16 4.32 16 5 C15.34773438 4.86722656 14.69546875 4.73445313 14.0234375 4.59765625 C9.3591713 3.65517178 4.70131546 2.74231297 0 2 C0 1.34 0 0.68 0 0 Z " fill="#EAC245" transform="translate(438,390)"/>
<path d="M0 0 C2.625 0.6875 2.625 0.6875 5 2 C5.33 2.99 5.66 3.98 6 5 C3.36 5 0.72 5 -2 5 C-2.33 4.01 -2.66 3.02 -3 2 C-2.01 1.34 -1.02 0.68 0 0 Z " fill="#C0902E" transform="translate(524,616)"/>
<path d="M0 0 C1.20628008 2.33214148 2.1654738 4.49642139 3 7 C2.01 7 1.02 7 0 7 C-0.66 8.32 -1.32 9.64 -2 11 C-2.05399736 9.54207116 -2.09279177 8.08357288 -2.125 6.625 C-2.15980469 5.40683594 -2.15980469 5.40683594 -2.1953125 4.1640625 C-2 2 -2 2 0 0 Z " fill="#1D1608" transform="translate(1019,455)"/>
<path d="M0 0 C3.08943092 2.52771621 4.11644276 5.1444775 5 9 C4.01 10.485 4.01 10.485 3 12 C2.71125 10.88625 2.4225 9.7725 2.125 8.625 C1.30758671 4.99708908 1.30758671 4.99708908 -1 3 C-0.67 2.01 -0.34 1.02 0 0 Z " fill="#DAB13F" transform="translate(637,442)"/>
<path d="M0 0 C-0.66 0 -1.32 0 -2 0 C-2 0.66 -2 1.32 -2 2 C-6.04141194 2.63394697 -9.9065307 3.12404452 -14 3 C-9.5718927 0.52025991 -4.9510693 -1.65035643 0 0 Z " fill="#C0902F" transform="translate(993,529)"/>
<path d="M0 0 C0.99 0.66 1.98 1.32 3 2 C0 5 -3 8 -6 11 C-4.54955729 6.89041233 -2.48889248 3.56741255 0 0 Z " fill="#F4D854" transform="translate(796,455)"/>
<path d="M0 0 C1.32 0.33 2.64 0.66 4 1 C4.33 4.3 4.66 7.6 5 11 C1.7089159 7.39042389 0.45336079 4.87362847 0 0 Z " fill="#E6C24C" transform="translate(745,454)"/>
<path d="M0 0 C0.33 1.32 0.66 2.64 1 4 C0.01 4.33 -0.98 4.66 -2 5 C-2.70211894 6.65204456 -3.36971413 8.31923769 -4 10 C-4.99 10.495 -4.99 10.495 -6 11 C-4.54955729 6.89041233 -2.48889248 3.56741255 0 0 Z " fill="#EDC647" transform="translate(844,507)"/>
<path d="M0 0 C5.78461538 4.18461538 5.78461538 4.18461538 6.875 8.3125 C6.936875 9.6428125 6.936875 9.6428125 7 11 C4.0444623 8.24829249 1.88436685 5.58029701 0 2 C0 1.34 0 0.68 0 0 Z " fill="#EAC94B" transform="translate(760,480)"/>
<path d="M0 0 C0.66 0 1.32 0 2 0 C1.8125 2.875 1.8125 2.875 1 6 C-1.5625 7.375 -1.5625 7.375 -4 8 C-2.68 5.36 -1.36 2.72 0 0 Z " fill="#EDCD4D" transform="translate(788,467)"/>
<path d="M0 0 C4.60209225 -0.17700355 6.78370866 -0.10814567 11 2 C7.7 2.33 4.4 2.66 1 3 C0.67 2.01 0.34 1.02 0 0 Z " fill="#AC802B" transform="translate(508,617)"/>
<path d="M0 0 C0.33 0.66 0.66 1.32 1 2 C2.65 2 4.3 2 6 2 C6.66 3.32 7.32 4.64 8 6 C4.7 5.01 1.4 4.02 -2 3 C-1.34 2.01 -0.68 1.02 0 0 Z " fill="#E5B840" transform="translate(611,442)"/>
</svg>
